<svg width="200" height="200" viewBox="0 0 200 200" fill="none" xmlns="http://www.w3.org/2000/svg">
    <rect width="200" height="200" rx="40" fill="#FFFFFF"/>
    <path d="M100 25C58.5786 25 25 58.5786 25 100C25 141.421 58.5786 175 100 175C141.421 175 175 141.421 175 100C175 58.5786 141.421 25 100 25Z" fill="#E6F5EE"/>
    <path d="M73.3333 100C73.3333 84.9167 85.5833 72.6667 100.667 72.6667C113.917 72.6667 125 82.0833 127.583 94.5833M127.583 94.5833L115.75 90.4167M127.583 94.5833L131.75 82.75" stroke="#18B26F" stroke-width="8" stroke-linecap="round" stroke-linejoin="round"/>
    <path d="M126.667 100C126.667 115.083 114.417 127.333 99.3333 127.333C86.0833 127.333 75 117.917 72.4167 105.417M72.4167 105.417L84.25 109.583M72.4167 105.417L68.25 117.25" stroke="#18B26F" stroke-width="8" stroke-linecap="round" stroke-linejoin="round"/>
    <path d="M98.3333 66.6667L98.3333 53.3334M66.6667 100L53.3333 100M98.3333 146.667L98.3333 133.333M146.667 100L133.333 100M77.5 77.5L68.3333 68.3334M77.5 122.5L68.3333 131.667M122.5 77.5L131.667 68.3334M122.5 122.5L131.667 131.667" stroke="#18B26F" stroke-width="4" stroke-linecap="round"/>
</svg>
